<svg width="44" height="64" viewBox="0 0 44 64" fill="none" xmlns="http://www.w3.org/2000/svg">
<path d="M9.27273 12.5C8.4443 12.5 7.77273 13.1716 7.77273 14C7.77273 14.8284 8.4443 15.5 9.27273 15.5V12.5ZM16.5455 15.5C17.3739 15.5 18.0455 14.8284 18.0455 14C18.0455 13.1716 17.3739 12.5 16.5455 12.5V15.5ZM9.27273 26.9C8.4443 26.9 7.77273 27.5716 7.77273 28.4C7.77273 29.2284 8.4443 29.9 9.27273 29.9V26.9ZM27.4545 29.9C28.283 29.9 28.9545 29.2284 28.9545 28.4C28.9545 27.5716 28.283 26.9 27.4545 26.9V29.9ZM9.27273 36.5C8.4443 36.5 7.77273 37.1716 7.77273 38C7.77273 38.8284 8.4443 39.5 9.27273 39.5V36.5ZM23.8182 39.5C24.6466 39.5 25.3182 38.8284 25.3182 38C25.3182 37.1716 24.6466 36.5 23.8182 36.5V39.5ZM40.5 16.4V57.2H43.5V16.4H40.5ZM38.3636 60.5H12.9091V63.5H38.3636V60.5ZM12.9091 60.5C12.4765 60.5 11.9757 60.2721 11.5334 59.6883C11.0904 59.1035 10.7727 58.2288 10.7727 57.2H7.77273C7.77273 58.8222 8.26906 60.3474 9.14216 61.4999C10.016 62.6533 11.3334 63.5 12.9091 63.5V60.5ZM40.5 57.2C40.5 58.2288 40.1823 59.1035 39.7393 59.6883C39.297 60.2721 38.7963 60.5 38.3636 60.5V63.5C39.9393 63.5 41.2567 62.6533 42.1306 61.4999C43.0037 60.3474 43.5 58.8222 43.5 57.2H40.5ZM38.3636 13.1C38.7963 13.1 39.297 13.3279 39.7393 13.9117C40.1823 14.4965 40.5 15.3712 40.5 16.4H43.5C43.5 14.7778 43.0037 13.2526 42.1306 12.1001C41.2567 10.9467 39.9393 10.1 38.3636 10.1V13.1ZM10.7727 57.2V52.4H7.77273V57.2H10.7727ZM38.3636 10.1H34.7273V13.1H38.3636V10.1ZM9.27273 15.5H16.5455V12.5H9.27273V15.5ZM9.27273 29.9H27.4545V26.9H9.27273V29.9ZM9.27273 39.5H23.8182V36.5H9.27273V39.5ZM5.63636 3.5H31.0909V0.5H5.63636V3.5ZM33.2273 6.8V47.6H36.2273V6.8H33.2273ZM31.0909 50.9H5.63636V53.9H31.0909V50.9ZM3.5 47.6V6.8H0.5V47.6H3.5ZM5.63636 50.9C5.20372 50.9 4.70299 50.6721 4.2607 50.0883C3.81769 49.5035 3.5 48.6288 3.5 47.6H0.5C0.5 49.2222 0.996336 50.7474 1.86943 51.8999C2.74325 53.0533 4.0607 53.9 5.63636 53.9V50.9ZM33.2273 47.6C33.2273 48.6288 32.9096 49.5035 32.4666 50.0883C32.0243 50.6721 31.5236 50.9 31.0909 50.9V53.9C32.6666 53.9 33.984 53.0533 34.8578 51.8999C35.7309 50.7474 36.2273 49.2222 36.2273 47.6H33.2273ZM31.0909 3.5C31.5236 3.5 32.0243 3.72786 32.4666 4.31167C32.9096 4.89645 33.2273 5.77123 33.2273 6.8H36.2273C36.2273 5.1778 35.7309 3.65258 34.8578 2.5001C33.984 1.34665 32.6666 0.5 31.0909 0.5V3.5ZM5.63636 0.5C4.0607 0.5 2.74325 1.34665 1.86943 2.5001C0.996336 3.65258 0.5 5.1778 0.5 6.8H3.5C3.5 5.77123 3.81769 4.89645 4.2607 4.31167C4.70299 3.72786 5.20372 3.5 5.63636 3.5V0.5Z" fill="white"/>
</svg>
