<svg width="30" height="44" viewBox="0 0 30 44" fill="none" xmlns="http://www.w3.org/2000/svg">
<path d="M6.83119 8.5C6.00276 8.5 5.33119 9.17157 5.33119 10C5.33119 10.8284 6.00276 11.5 6.83119 11.5V8.5ZM11.5413 11.5C12.3697 11.5 13.0413 10.8284 13.0413 10C13.0413 9.17157 12.3697 8.5 11.5413 8.5V11.5ZM6.83119 18.1C6.00276 18.1 5.33119 18.7716 5.33119 19.6C5.33119 20.4284 6.00276 21.1 6.83119 21.1V18.1ZM18.6064 21.1C19.4349 21.1 20.1064 20.4284 20.1064 19.6C20.1064 18.7716 19.4349 18.1 18.6064 18.1V21.1ZM6.83119 24.5C6.00276 24.5 5.33119 25.1716 5.33119 26C5.33119 26.8284 6.00276 27.5 6.83119 27.5V24.5ZM16.2514 27.5C17.0798 27.5 17.7514 26.8284 17.7514 26C17.7514 25.1716 17.0798 24.5 16.2514 24.5V27.5ZM26.5266 11.6V38.8H29.5266V11.6H26.5266ZM25.6716 40.5H9.18624V43.5H25.6716V40.5ZM9.18624 40.5C9.12623 40.5 8.94728 40.4701 8.72906 40.1736C8.51133 39.8778 8.33119 39.397 8.33119 38.8H5.33119C5.33119 39.9703 5.67824 41.0895 6.31287 41.9518C6.94701 42.8135 7.94559 43.5 9.18624 43.5V40.5ZM26.5266 38.8C26.5266 39.397 26.3465 39.8778 26.1287 40.1736C25.9105 40.4701 25.7316 40.5 25.6716 40.5V43.5C26.9122 43.5 27.9108 42.8135 28.5449 41.9518C29.1796 41.0895 29.5266 39.9703 29.5266 38.8H26.5266ZM25.6716 9.9C25.7316 9.9 25.9105 9.92985 26.1287 10.2264C26.3465 10.5222 26.5266 11.003 26.5266 11.6H29.5266C29.5266 10.4297 29.1796 9.31048 28.5449 8.44816C27.9108 7.58649 26.9122 6.9 25.6716 6.9V9.9ZM8.33119 38.8V35.6H5.33119V38.8H8.33119ZM25.6716 6.9H23.3165V9.9H25.6716V6.9ZM6.83119 11.5H11.5413V8.5H6.83119V11.5ZM6.83119 21.1H18.6064V18.1H6.83119V21.1ZM6.83119 27.5H16.2514V24.5H6.83119V27.5ZM4.47614 3.5H20.9615V0.5H4.47614V3.5ZM21.8165 5.2V32.4H24.8165V5.2H21.8165ZM20.9615 34.1H4.47614V37.1H20.9615V34.1ZM3.62109 32.4V5.2H0.621094V32.4H3.62109ZM4.47614 34.1C4.41613 34.1 4.23718 34.0701 4.01897 33.7736C3.80123 33.4778 3.62109 32.997 3.62109 32.4H0.621094C0.621094 33.5703 0.968148 34.6895 1.60277 35.5518C2.23692 36.4135 3.2355 37.1 4.47614 37.1V34.1ZM21.8165 32.4C21.8165 32.997 21.6364 33.4778 21.4186 33.7736C21.2004 34.0701 21.0215 34.1 20.9615 34.1V37.1C22.2021 37.1 23.2007 36.4135 23.8348 35.5518C24.4695 34.6895 24.8165 33.5703 24.8165 32.4H21.8165ZM20.9615 3.5C21.0215 3.5 21.2004 3.52985 21.4186 3.82636C21.6364 4.12221 21.8165 4.60297 21.8165 5.2H24.8165C24.8165 4.02972 24.4695 2.91048 23.8348 2.04816C23.2007 1.18649 22.2021 0.5 20.9615 0.5V3.5ZM4.47614 0.5C3.2355 0.5 2.23692 1.18649 1.60277 2.04816C0.968148 2.91048 0.621094 4.02972 0.621094 5.2H3.62109C3.62109 4.60297 3.80123 4.12221 4.01897 3.82636C4.23718 3.52985 4.41613 3.5 4.47614 3.5V0.5Z" fill="white"/>
</svg>
