<svg width="68" height="64" viewBox="0 0 68 64" fill="none" xmlns="http://www.w3.org/2000/svg">
<g filter="url(#filter0_d_381_1514)">
<rect x="9" y="9" width="49" height="46" rx="8" fill="url(#paint0_linear_381_1514)" shape-rendering="crispEdges"/>
</g>
<path d="M35.9259 29.845C35.7474 29.7003 35.4858 29.7272 35.3408 29.9056L32.8063 33.0216L31.1551 31.6445C30.9785 31.4973 30.7162 31.5211 30.5692 31.6975C30.422 31.8739 30.4458 32.1362 30.6222 32.2832L32.597 33.9299C32.6826 34.0011 32.7927 34.0353 32.9033 34.0245C33.0138 34.014 33.1157 33.9593 33.1861 33.8728L35.9862 30.4302C36.1307 30.2518 36.104 29.9897 35.9259 29.8451L35.9259 29.845Z" fill="white"/>
<path d="M33.0282 24.6816C28.969 24.6816 25.6797 27.9715 25.6797 32.0301C25.6797 36.0885 28.969 39.3787 33.0282 39.3787C37.0876 39.3787 40.3767 36.0884 40.3767 32.0301C40.3769 27.972 37.0878 24.6816 33.0282 24.6816ZM33.0282 38.5467C29.4352 38.5467 26.5116 35.6234 26.5116 32.0301C26.5116 28.4369 29.4351 25.5135 33.0282 25.5135C36.6217 25.5135 39.5448 28.4369 39.5448 32.0301C39.5448 35.6234 36.6217 38.5467 33.0282 38.5467Z" fill="white"/>
<path d="M42.9506 34.8173L42.4818 32.9219C42.4173 32.6662 42.3792 32.2816 42.38 31.9048C42.3794 31.5524 42.4131 31.2 42.4696 30.9603L42.9152 29.0597L42.9154 29.0589C42.945 28.9299 42.9589 28.7991 42.9593 28.6689C42.9582 28.3289 42.8678 27.995 42.7104 27.6973C42.5524 27.4004 42.3253 27.1358 42.0287 26.9559L40.3565 25.9472C40.1379 25.8162 39.8507 25.5831 39.5917 25.3261C39.3315 25.0702 39.0946 24.7858 38.9609 24.569L37.9321 22.9095C37.7504 22.6184 37.4874 22.3966 37.1922 22.2424C36.8967 22.0884 36.5663 22.0006 36.2303 22C36.0926 22 35.9539 22.0155 35.8173 22.0491L33.9222 22.5184C33.6659 22.5822 33.2814 22.6207 32.9046 22.6201C32.5522 22.6207 32.1998 22.5871 31.9607 22.5306L30.0598 22.0849C29.9304 22.0547 29.7991 22.0408 29.6693 22.0408C29.329 22.0414 28.9948 22.1323 28.6977 22.2898C28.4004 22.4478 28.1362 22.6749 27.9563 22.9716L26.9477 24.6433C26.8166 24.862 26.5833 25.1493 26.3266 25.4087C26.0707 25.6688 25.7862 25.9056 25.5695 26.039L23.9101 27.0681C23.6186 27.2495 23.3965 27.5128 23.2424 27.8079C23.0884 28.1033 23.0008 28.4341 23 28.7699C23.0002 28.9076 23.0155 29.0467 23.0493 29.183L23.5186 31.0781C23.582 31.3338 23.6207 31.7184 23.6198 32.0952C23.6205 32.4476 23.5873 32.8004 23.5304 33.0399L23.0847 34.9405L23.0853 34.9384C23.054 35.0699 23.0406 35.2015 23.0404 35.3311C23.0412 35.6713 23.1319 36.0051 23.2894 36.303C23.4478 36.6 23.6745 36.8644 23.9712 37.0445L25.6436 38.053C25.8618 38.1842 26.1494 38.4174 26.4084 38.6741C26.6686 38.93 26.9051 39.2144 27.0388 39.4314L28.0678 41.0905C28.2493 41.3816 28.5125 41.6034 28.8071 41.7576C29.1027 41.9116 29.4333 41.9994 29.7697 42C29.9072 42 30.0459 41.9847 30.1823 41.9509L32.0779 41.482C32.333 41.418 32.7181 41.3795 33.0949 41.3802C33.4474 41.3797 33.8002 41.4129 34.0394 41.4698L35.9401 41.9155C36.0693 41.9456 36.2003 41.9594 36.3306 41.9594C36.6707 41.9588 37.0047 41.8679 37.3026 41.7106C37.5993 41.5522 37.8642 41.3255 38.0441 41.0288L39.0526 39.3571C39.1837 39.1384 39.417 38.8511 39.6737 38.5917C39.9294 38.3316 40.2139 38.0948 40.4308 37.9614L42.0902 36.9323C42.3817 36.7507 42.6032 36.4872 42.7574 36.1925C42.911 35.8969 42.999 35.5663 42.9996 35.2301C42.9994 35.093 42.9506 34.8173 42.9506 34.8173L42.9506 34.8173ZM42.0198 35.8073C41.9256 35.9895 41.7908 36.1394 41.6519 36.2249L39.9929 37.2539C39.6911 37.4418 39.3752 37.7106 39.082 38.0072C38.7895 38.3041 38.5243 38.6232 38.3405 38.9269L37.332 40.5985C37.2475 40.7403 37.0962 40.8784 36.9126 40.9752C36.7297 41.073 36.5169 41.128 36.3306 41.1272C36.2588 41.1272 36.1911 41.1196 36.1298 41.1053L34.2292 40.6597C33.8945 40.5821 33.4974 40.5488 33.0945 40.5483C32.6634 40.5488 32.2337 40.5867 31.8771 40.6744L29.9816 41.1432C29.9168 41.1597 29.8447 41.168 29.7687 41.168C29.5828 41.1688 29.3727 41.1156 29.1913 41.0202C29.0095 40.9256 28.8594 40.7912 28.7743 40.6523L27.7448 38.9929C27.557 38.6915 27.2883 38.3752 26.992 38.0822C26.6951 37.7893 26.3759 37.5243 26.0722 37.3402L24.4 36.3317C24.2582 36.2473 24.1201 36.0962 24.0234 35.9123C23.9253 35.7295 23.8706 35.5169 23.8714 35.3305C23.8712 35.2581 23.8785 35.1912 23.8932 35.1316V35.1297L24.3391 33.229C24.4166 32.8946 24.4497 32.4973 24.4505 32.0946C24.4497 31.6634 24.4114 31.2338 24.3246 30.8777L23.8551 28.9821C23.8391 28.9169 23.8304 28.8451 23.8307 28.7689C23.83 28.5834 23.8832 28.3732 23.9785 28.1919C24.0727 28.0095 24.2075 27.8598 24.3468 27.7743L26.0063 26.7453C26.308 26.5575 26.6239 26.2886 26.9172 25.9921C27.2096 25.6951 27.4746 25.376 27.6586 25.0723L28.6671 23.4005C28.7517 23.2587 28.9025 23.1206 29.0865 23.0239C29.2693 22.926 29.4817 22.8714 29.6683 22.8718C29.7399 22.8718 29.807 22.8794 29.8687 22.8941L31.7696 23.3397C32.1036 23.4173 32.5008 23.4506 32.9037 23.4512C33.3348 23.4504 33.7644 23.4121 34.1213 23.325L36.0167 22.8558C36.0819 22.8393 36.1535 22.831 36.2297 22.831C36.4152 22.8304 36.6254 22.8834 36.8067 22.9788C36.9889 23.0734 37.1392 23.2082 37.2243 23.3473L38.2533 25.0063C38.4413 25.3077 38.7098 25.6236 39.0061 25.917C39.3035 26.2095 39.6226 26.4747 39.9263 26.6588L41.5981 27.6673C41.7399 27.7519 41.8776 27.9028 41.9744 28.0867C42.0724 28.2695 42.1272 28.4821 42.1264 28.6685C42.1266 28.7401 42.1189 28.808 42.1045 28.8701V28.8695L41.6589 30.7702C41.5815 31.1042 41.5475 31.5017 41.5471 31.9046C41.5478 32.3356 41.5859 32.765 41.6736 33.1223L42.1428 35.0168H42.1426C42.1591 35.0814 42.167 35.1531 42.167 35.2299C42.1682 35.4154 42.1152 35.6259 42.0198 35.8073L42.0198 35.8073Z" fill="white"/>
<defs>
<filter id="filter0_d_381_1514" x="0.1" y="0" width="67" height="64" filterUnits="userSpaceOnUse" color-interpolation-filters="sRGB">
<feFlood flood-opacity="0" result="BackgroundImageFix"/>
<feColorMatrix in="SourceAlpha" type="matrix" values="0 0 0 0 0 0 0 0 0 0 0 0 0 0 0 0 0 0 127 0" result="hardAlpha"/>
<feMorphology radius="6" operator="erode" in="SourceAlpha" result="effect1_dropShadow_381_1514"/>
<feOffset dx="0.1"/>
<feGaussianBlur stdDeviation="7.5"/>
<feComposite in2="hardAlpha" operator="out"/>
<feColorMatrix type="matrix" values="0 0 0 0 0.917647 0 0 0 0 0.529412 0 0 0 0 0.2 0 0 0 1 0"/>
<feBlend mode="normal" in2="BackgroundImageFix" result="effect1_dropShadow_381_1514"/>
<feBlend mode="normal" in="SourceGraphic" in2="effect1_dropShadow_381_1514" result="shape"/>
</filter>
<linearGradient id="paint0_linear_381_1514" x1="33.5" y1="9" x2="33.5" y2="55" gradientUnits="userSpaceOnUse">
<stop stop-color="#EA8733" stop-opacity="0.7"/>
<stop offset="1" stop-color="#EA8733"/>
</linearGradient>
</defs>
</svg>
