<svg width="68" height="64" viewBox="0 0 68 64" fill="none" xmlns="http://www.w3.org/2000/svg">
<g filter="url(#filter0_d_381_1561)">
<rect x="9" y="9" width="49" height="46" rx="8" fill="url(#paint0_linear_381_1561)" shape-rendering="crispEdges"/>
</g>
<path d="M24 28.3696C24 28.5805 24.1439 28.763 24.346 28.8078C27.0716 29.4135 29.2163 31.6035 29.8093 34.3864C29.8532 34.5924 30.032 34.7393 30.2384 34.7393C30.4451 34.7393 30.6237 34.5924 30.6675 34.3864C31.2607 31.6033 33.4052 29.4133 36.1308 28.8078C36.3326 28.7629 36.4767 28.5803 36.4767 28.3696C36.4767 28.1587 36.3327 27.9762 36.1308 27.9315C35.3699 27.7623 34.6447 27.4681 33.9756 27.0568C33.7678 26.9295 33.4975 26.9977 33.3727 27.21C33.2475 27.4221 33.3148 27.6977 33.5225 27.8255C33.8616 28.0341 34.2138 28.2155 34.5766 28.3698C32.6183 29.2014 31.0526 30.8006 30.2381 32.7999C29.4236 30.8004 27.8575 29.2012 25.8996 28.3698C27.8578 27.5382 29.424 25.9388 30.2385 23.9393C30.6063 24.8419 31.1324 25.6761 31.7944 26.398C31.9602 26.5787 32.2382 26.5884 32.4153 26.4188C32.5923 26.2496 32.6016 25.9657 32.4357 25.7848C31.5524 24.8213 30.9409 23.6347 30.6678 22.3529C30.6238 22.1469 30.4453 22 30.2386 22C30.0321 22 29.8533 22.1469 29.8095 22.3529C29.216 25.1361 27.0717 27.326 24.3462 27.9316C24.1442 27.9763 24 28.1586 24 28.3696L24 28.3696Z" fill="white"/>
<path d="M42.6667 34.5521C42.6667 34.3413 42.5229 34.1587 42.3211 34.114C40.5818 33.7271 39.2135 32.33 38.8348 30.5541C38.7908 30.3481 38.6124 30.2012 38.4057 30.2012C38.1992 30.2012 38.0204 30.3481 37.9766 30.5541C37.5979 32.3298 36.2295 33.7271 34.4902 34.114C34.2884 34.1589 34.1445 34.3414 34.1445 34.5521C34.1445 34.763 34.2885 34.9456 34.4905 34.9903C35.1632 35.1398 35.8055 35.451 36.3483 35.8901C36.5385 36.0442 36.815 36.0115 36.9654 35.8172C37.116 35.6232 37.0843 35.341 36.894 35.1871C36.5892 34.9403 36.2578 34.7274 35.9083 34.5526C36.9928 34.0096 37.8741 33.11 38.406 32.0032C38.9375 33.11 39.8184 34.0093 40.9023 34.5521C39.8183 35.0948 38.9374 35.9946 38.406 37.101C38.3154 36.9131 38.2145 36.7297 38.103 36.5517C37.9721 36.3432 37.7003 36.2822 37.4961 36.4161C37.2919 36.55 37.2323 36.8272 37.3633 37.0359C37.6556 37.5018 37.8621 38.0112 37.9769 38.5503C38.0208 38.7564 38.1996 38.9032 38.406 38.9032C38.6126 38.9032 38.7913 38.7564 38.8351 38.5503C39.2138 36.7743 40.582 35.3772 42.3214 34.9905C42.5227 34.9456 42.6667 34.763 42.6667 34.5521H42.6667Z" fill="white"/>
<path d="M31.9143 36.2484C31.8703 36.0424 31.6915 35.8955 31.4852 35.8955C31.2785 35.8955 31.0999 36.0424 31.0561 36.2484C30.8156 37.3765 29.9465 38.2639 28.842 38.5096C28.6403 38.5545 28.4961 38.737 28.4961 38.9477C28.4961 39.1586 28.64 39.3412 28.8417 39.3859C29.9465 39.6316 30.8156 40.5191 31.0561 41.647C31.1001 41.853 31.2786 41.9999 31.4852 41.9999C31.6917 41.9999 31.8705 41.853 31.9143 41.647C32.1548 40.5191 33.024 39.6318 34.1287 39.3859C34.3305 39.341 34.4743 39.1584 34.4743 38.9477C34.4743 38.7368 34.3303 38.5543 34.1284 38.5096C33.024 38.2641 32.1549 37.3767 31.9143 36.2484H31.9143ZM31.4849 40.3333C31.1567 39.7609 30.6885 39.2827 30.128 38.9476C30.6885 38.6128 31.1567 38.1344 31.4849 37.562C31.813 38.1344 32.2812 38.6126 32.8418 38.9476C32.2816 39.2828 31.8134 39.7609 31.4849 40.3333Z" fill="white"/>
<path d="M27.0168 35.3775C26.9992 35.3531 26.9817 35.3304 26.9619 35.3081C26.7973 35.1421 26.5051 35.1421 26.3404 35.3081C26.3206 35.3304 26.3009 35.353 26.2855 35.3775C26.2702 35.4002 26.2571 35.4271 26.246 35.4537C26.235 35.4806 26.2263 35.5097 26.2197 35.5391C26.2152 35.5659 26.2109 35.5975 26.2109 35.6266C26.2109 35.6849 26.222 35.7431 26.2439 35.7971C26.2681 35.8509 26.2987 35.9002 26.3405 35.9429C26.424 36.0282 26.5339 36.0752 26.6502 36.0752C26.7687 36.0752 26.8786 36.0282 26.9621 35.9429C27.0038 35.9003 27.0346 35.8509 27.0565 35.7971C27.0784 35.7433 27.0894 35.6849 27.0894 35.6266C27.0894 35.5975 27.0872 35.5657 27.0807 35.5391C27.0762 35.5097 27.0675 35.4806 27.0565 35.4537C27.0454 35.4268 27.0322 35.4022 27.0168 35.3775H27.0168Z" fill="white"/>
<path d="M37.7957 26.106C37.7804 26.0813 37.7606 26.0589 37.7409 26.0387C37.7211 26.0186 37.6992 25.9984 37.675 25.9827C37.6508 25.9671 37.6244 25.9513 37.5981 25.9402C37.5717 25.9313 37.5454 25.9222 37.5169 25.9158C37.4598 25.9044 37.4005 25.9044 37.3456 25.9158C37.3171 25.9224 37.2885 25.9313 37.2621 25.9402C37.2358 25.9516 37.2116 25.9671 37.1875 25.9827C37.1633 25.9984 37.1414 26.0186 37.1195 26.0387C37.0997 26.0589 37.0821 26.0811 37.0647 26.106C37.0493 26.1307 37.0362 26.1576 37.0251 26.1845C37.0141 26.2115 37.0054 26.2384 37.0009 26.2675C36.9943 26.2966 36.9922 26.326 36.9922 26.3552C36.9922 26.4158 37.0032 26.4738 37.0251 26.5279C37.047 26.5819 37.0778 26.631 37.1195 26.6737C37.203 26.7566 37.3128 26.8037 37.4314 26.8037C37.5479 26.8037 37.6577 26.7566 37.741 26.6737C37.8245 26.5885 37.8706 26.4763 37.8706 26.3552C37.8706 26.3261 37.8662 26.2967 37.8619 26.2675C37.8553 26.2384 37.8466 26.2115 37.8356 26.1845C37.8244 26.1576 37.8112 26.1307 37.7957 26.106H37.7957Z" fill="white"/>
<path d="M35.1799 38.7029C35.1953 38.7276 35.215 38.75 35.2348 38.7727C35.2765 38.813 35.3249 38.8467 35.3776 38.869C35.4303 38.8914 35.4874 38.9027 35.5446 38.9027C35.6038 38.9027 35.661 38.8912 35.7137 38.869C35.7664 38.8467 35.8147 38.813 35.8565 38.7727C35.8762 38.75 35.896 38.7278 35.9113 38.7029C35.9266 38.6785 35.9398 38.6536 35.9508 38.6267C35.9619 38.5998 35.9706 38.5707 35.9751 38.5438C35.9816 38.5147 35.9838 38.4854 35.9838 38.4543C35.9838 38.4249 35.9816 38.3958 35.9751 38.3666C35.9706 38.3375 35.9619 38.3106 35.9508 38.2836C35.9398 38.2567 35.9266 38.23 35.9113 38.2051C35.8937 38.1804 35.8762 38.158 35.8565 38.1378C35.6918 37.9697 35.3996 37.9697 35.2349 38.1378C35.2152 38.158 35.1954 38.1802 35.1801 38.2051C35.1648 38.2298 35.1516 38.2564 35.1406 38.2836C35.1295 38.3105 35.1208 38.3375 35.1142 38.3666C35.1098 38.3957 35.1055 38.4249 35.1055 38.4543C35.1055 38.4858 35.1099 38.5149 35.1142 38.5438C35.1208 38.5707 35.1295 38.5998 35.1384 38.6267C35.1491 38.6536 35.1646 38.6783 35.1799 38.7029H35.1799Z" fill="white"/>
<path d="M33.2795 32.2479C33.2948 32.2726 33.3146 32.295 33.3344 32.3155C33.3563 32.3378 33.3783 32.3558 33.4024 32.3715C33.4266 32.3894 33.4506 32.4029 33.477 32.4139C33.5033 32.4248 33.5318 32.434 33.5582 32.4386C33.5867 32.4453 33.6153 32.4475 33.646 32.4475C33.7624 32.4475 33.8722 32.4004 33.9556 32.3151C33.9753 32.2948 33.9951 32.2726 34.0104 32.2476C34.0258 32.2232 34.0412 32.1983 34.05 32.1714C34.061 32.1445 34.0697 32.1154 34.0763 32.0861C34.0807 32.0592 34.085 32.0278 34.085 31.9987C34.085 31.9696 34.0806 31.9403 34.0763 31.9109C34.0697 31.8818 34.061 31.8526 34.05 31.8257C34.0389 31.7987 34.0258 31.7743 34.0104 31.7495C33.9951 31.7251 33.9753 31.7024 33.9556 31.6822C33.9358 31.6598 33.9139 31.6418 33.8897 31.6262C33.8655 31.6106 33.8391 31.5948 33.8128 31.5836C33.7865 31.5724 33.7601 31.5635 33.7316 31.5592C33.5888 31.5301 33.4373 31.5772 33.334 31.6825C33.3143 31.7027 33.2967 31.7251 33.2792 31.7498C33.2639 31.7745 33.2507 31.7991 33.2397 31.826C33.2286 31.8529 33.2199 31.882 33.2155 31.9112C33.2092 31.9408 33.207 31.97 33.207 31.9991C33.207 32.0282 33.2092 32.0597 33.2158 32.0866C33.2202 32.1157 33.2289 32.1449 33.24 32.1718C33.2508 32.1988 33.264 32.2235 33.2795 32.2479L33.2795 32.2479Z" fill="white"/>
<defs>
<filter id="filter0_d_381_1561" x="0.1" y="0" width="67" height="64" filterUnits="userSpaceOnUse" color-interpolation-filters="sRGB">
<feFlood flood-opacity="0" result="BackgroundImageFix"/>
<feColorMatrix in="SourceAlpha" type="matrix" values="0 0 0 0 0 0 0 0 0 0 0 0 0 0 0 0 0 0 127 0" result="hardAlpha"/>
<feMorphology radius="6" operator="erode" in="SourceAlpha" result="effect1_dropShadow_381_1561"/>
<feOffset dx="0.1"/>
<feGaussianBlur stdDeviation="7.5"/>
<feComposite in2="hardAlpha" operator="out"/>
<feColorMatrix type="matrix" values="0 0 0 0 0.917647 0 0 0 0 0.529412 0 0 0 0 0.2 0 0 0 1 0"/>
<feBlend mode="normal" in2="BackgroundImageFix" result="effect1_dropShadow_381_1561"/>
<feBlend mode="normal" in="SourceGraphic" in2="effect1_dropShadow_381_1561" result="shape"/>
</filter>
<linearGradient id="paint0_linear_381_1561" x1="33.5" y1="9" x2="33.5" y2="55" gradientUnits="userSpaceOnUse">
<stop stop-color="#EA8733" stop-opacity="0.7"/>
<stop offset="1" stop-color="#EA8733"/>
</linearGradient>
</defs>
</svg>
