<svg width="78" height="78" viewBox="0 0 78 78" fill="none" xmlns="http://www.w3.org/2000/svg">
<path d="M58 6.09108C50.7556 1.90854 42.3336 0.233285 34.04 1.32515C25.7465 2.41701 18.045 6.21497 12.13 12.13C6.21497 18.045 2.41701 25.7465 1.32515 34.04C0.233285 42.3336 1.90854 50.7556 6.09109 58C10.2736 65.2444 16.7297 70.9062 24.4581 74.1074C32.1864 77.3086 40.7551 77.8702 48.8351 75.7052C56.9152 73.5401 64.0551 68.7694 69.1474 62.1329C74.2398 55.4965 77 47.3651 77 39" stroke="#EA8733" stroke-width="1.5" stroke-linecap="round" stroke-linejoin="round"/>
<path d="M22.5027 37.144C21.7561 37.144 21.1321 36.984 20.6307 36.664C20.1401 36.344 19.7667 35.9013 19.5107 35.336C19.2547 34.7707 19.1054 34.1147 19.0627 33.368L20.6627 32.936C20.6947 33.3947 20.7641 33.8373 20.8707 34.264C20.9881 34.6907 21.1747 35.0427 21.4307 35.32C21.6867 35.5867 22.0441 35.72 22.5027 35.72C22.9721 35.72 23.3241 35.592 23.5587 35.336C23.8041 35.0693 23.9267 34.6907 23.9267 34.2C23.9267 33.6133 23.7934 33.144 23.5267 32.792C23.2601 32.4293 22.9241 32.0667 22.5187 31.704L20.3427 29.784C19.9161 29.4107 19.6014 29.0053 19.3987 28.568C19.1961 28.12 19.0947 27.5707 19.0947 26.92C19.0947 25.9707 19.3667 25.2347 19.9107 24.712C20.4547 24.1893 21.1961 23.928 22.1347 23.928C22.6467 23.928 23.0947 23.9973 23.4787 24.136C23.8734 24.264 24.1987 24.4667 24.4547 24.744C24.7214 25.0213 24.9294 25.3733 25.0787 25.8C25.2387 26.216 25.3454 26.7067 25.3987 27.272L23.8627 27.688C23.8307 27.2613 23.7667 26.872 23.6707 26.52C23.5747 26.1573 23.4041 25.8693 23.1587 25.656C22.9241 25.432 22.5827 25.32 22.1347 25.32C21.6867 25.32 21.3347 25.4427 21.0787 25.688C20.8334 25.9227 20.7107 26.2747 20.7107 26.744C20.7107 27.1387 20.7747 27.464 20.9027 27.72C21.0414 27.976 21.2601 28.2373 21.5587 28.504L23.7507 30.424C24.2414 30.8507 24.6734 31.3627 25.0467 31.96C25.4201 32.5467 25.6067 33.2453 25.6067 34.056C25.6067 34.696 25.4734 35.2507 25.2067 35.72C24.9401 36.1787 24.5721 36.5307 24.1027 36.776C23.6441 37.0213 23.1107 37.144 22.5027 37.144ZM27.6492 37V24.04H32.6732V25.384H29.4572V29.672H32.0652V30.952H29.4572V35.704H32.7052V37H27.6492ZM34.8049 37V24.04H37.4129C38.2769 24.04 38.9915 24.1573 39.5569 24.392C40.1222 24.616 40.5382 24.984 40.8049 25.496C41.0822 25.9973 41.2209 26.6587 41.2209 27.48C41.2209 27.9813 41.1675 28.44 41.0609 28.856C40.9542 29.2613 40.7835 29.608 40.5489 29.896C40.3142 30.1733 40.0049 30.376 39.6209 30.504L41.4609 37H39.7169L38.0209 30.92H36.6129V37H34.8049ZM36.6129 29.624H37.3009C37.8129 29.624 38.2289 29.56 38.5489 29.432C38.8689 29.304 39.1035 29.0853 39.2529 28.776C39.4022 28.4667 39.4769 28.0347 39.4769 27.48C39.4769 26.7227 39.3382 26.1787 39.0609 25.848C38.7835 25.5067 38.2342 25.336 37.4129 25.336H36.6129V29.624ZM46.8297 37.16C46.0191 37.16 45.3684 36.9893 44.8777 36.648C44.3977 36.296 44.0457 35.7893 43.8217 35.128C43.6084 34.4667 43.5017 33.672 43.5017 32.744V28.408C43.5017 27.4587 43.5977 26.6533 43.7897 25.992C43.9924 25.32 44.3444 24.808 44.8457 24.456C45.3577 24.104 46.0671 23.928 46.9737 23.928C47.7844 23.928 48.4351 24.0667 48.9257 24.344C49.4271 24.6107 49.7897 25.0267 50.0137 25.592C50.2377 26.1467 50.3497 26.8507 50.3497 27.704V28.184H48.6537V27.784C48.6537 27.2187 48.6164 26.76 48.5417 26.408C48.4671 26.0453 48.3124 25.7787 48.0777 25.608C47.8537 25.4267 47.4964 25.336 47.0057 25.336C46.4724 25.336 46.0831 25.4587 45.8377 25.704C45.6031 25.9493 45.4537 26.2853 45.3897 26.712C45.3364 27.128 45.3097 27.6027 45.3097 28.136V32.936C45.3097 33.5547 45.3524 34.072 45.4377 34.488C45.5337 34.904 45.7097 35.2133 45.9657 35.416C46.2217 35.6187 46.5844 35.72 47.0537 35.72C47.5231 35.72 47.8857 35.608 48.1417 35.384C48.3977 35.16 48.5737 34.8293 48.6697 34.392C48.7657 33.9547 48.8137 33.4107 48.8137 32.76V31.864H47.1657V30.584H50.4457V37H49.3097L49.1337 35.512C48.9631 35.992 48.6964 36.3867 48.3337 36.696C47.9711 37.0053 47.4697 37.16 46.8297 37.16ZM56.2562 37.144C55.3816 37.144 54.6829 36.9733 54.1602 36.632C53.6376 36.2907 53.2642 35.8053 53.0402 35.176C52.8162 34.536 52.7042 33.7893 52.7042 32.936V28.024C52.7042 27.1707 52.8162 26.44 53.0402 25.832C53.2749 25.2133 53.6482 24.744 54.1602 24.424C54.6829 24.0933 55.3816 23.928 56.2562 23.928C57.1309 23.928 57.8242 24.0933 58.3362 24.424C58.8482 24.7547 59.2162 25.224 59.4402 25.832C59.6749 26.44 59.7922 27.1707 59.7922 28.024V32.952C59.7922 33.7947 59.6749 34.5307 59.4402 35.16C59.2162 35.7893 58.8482 36.28 58.3362 36.632C57.8242 36.9733 57.1309 37.144 56.2562 37.144ZM56.2562 35.72C56.7362 35.72 57.0989 35.624 57.3442 35.432C57.5896 35.2293 57.7549 34.952 57.8402 34.6C57.9256 34.2373 57.9682 33.816 57.9682 33.336V27.656C57.9682 27.176 57.9256 26.7653 57.8402 26.424C57.7549 26.072 57.5896 25.8053 57.3442 25.624C57.0989 25.432 56.7362 25.336 56.2562 25.336C55.7762 25.336 55.4082 25.432 55.1522 25.624C54.9069 25.8053 54.7416 26.072 54.6562 26.424C54.5709 26.7653 54.5282 27.176 54.5282 27.656V33.336C54.5282 33.816 54.5709 34.2373 54.6562 34.6C54.7416 34.952 54.9069 35.2293 55.1522 35.432C55.4082 35.624 55.7762 35.72 56.2562 35.72ZM24.1023 56V54.784L27.3983 49.648C27.6436 49.264 27.8676 48.9067 28.0703 48.576C28.2836 48.2453 28.4543 47.8987 28.5823 47.536C28.7209 47.1627 28.7903 46.736 28.7903 46.256C28.7903 45.6587 28.6943 45.1893 28.5023 44.848C28.3103 44.5067 27.9743 44.336 27.4943 44.336C27.0889 44.336 26.7743 44.448 26.5503 44.672C26.3263 44.896 26.1716 45.1893 26.0863 45.552C26.0009 45.9147 25.9583 46.304 25.9583 46.72V47.152H24.2463V46.704C24.2463 45.9253 24.3476 45.2587 24.5503 44.704C24.7636 44.1387 25.0996 43.7013 25.5583 43.392C26.0276 43.0827 26.6463 42.928 27.4143 42.928C28.4596 42.928 29.2383 43.2267 29.7503 43.824C30.2623 44.4107 30.5183 45.2267 30.5183 46.272C30.5183 46.8267 30.4489 47.312 30.3103 47.728C30.1823 48.144 30.0116 48.5333 29.7983 48.896C29.5849 49.2587 29.3503 49.632 29.0943 50.016L26.1183 54.56H30.2143V56H24.1023ZM35.8709 56.144C35.1349 56.144 34.5269 55.9787 34.0469 55.648C33.5775 55.3173 33.2255 54.864 32.9909 54.288C32.7669 53.712 32.6549 53.056 32.6549 52.32V46.736C32.6549 45.9787 32.7669 45.3173 32.9909 44.752C33.2149 44.176 33.5615 43.728 34.0309 43.408C34.5109 43.088 35.1242 42.928 35.8709 42.928C36.6175 42.928 37.2255 43.088 37.6949 43.408C38.1642 43.728 38.5109 44.176 38.7349 44.752C38.9589 45.3173 39.0709 45.9787 39.0709 46.736V52.32C39.0709 53.0667 38.9535 53.728 38.7189 54.304C38.4949 54.88 38.1482 55.3333 37.6789 55.664C37.2095 55.984 36.6069 56.144 35.8709 56.144ZM35.8709 54.736C36.2762 54.736 36.5802 54.6187 36.7829 54.384C36.9962 54.1493 37.1402 53.8507 37.2149 53.488C37.3002 53.1147 37.3429 52.7307 37.3429 52.336V46.72C37.3429 46.304 37.3055 45.9147 37.2309 45.552C37.1562 45.1787 37.0122 44.88 36.7989 44.656C36.5962 44.432 36.2869 44.32 35.8709 44.32C35.4549 44.32 35.1402 44.432 34.9269 44.656C34.7135 44.88 34.5695 45.1787 34.4949 45.552C34.4202 45.9147 34.3829 46.304 34.3829 46.72V52.336C34.3829 52.7307 34.4202 53.1147 34.4949 53.488C34.5802 53.8507 34.7295 54.1493 34.9429 54.384C35.1669 54.6187 35.4762 54.736 35.8709 54.736ZM44.7765 56.144C44.0405 56.144 43.4325 55.9787 42.9525 55.648C42.4832 55.3173 42.1312 54.864 41.8965 54.288C41.6725 53.712 41.5605 53.056 41.5605 52.32V46.736C41.5605 45.9787 41.6725 45.3173 41.8965 44.752C42.1205 44.176 42.4672 43.728 42.9365 43.408C43.4165 43.088 44.0298 42.928 44.7765 42.928C45.5232 42.928 46.1312 43.088 46.6005 43.408C47.0698 43.728 47.4165 44.176 47.6405 44.752C47.8645 45.3173 47.9765 45.9787 47.9765 46.736V52.32C47.9765 53.0667 47.8592 53.728 47.6245 54.304C47.4005 54.88 47.0538 55.3333 46.5845 55.664C46.1152 55.984 45.5125 56.144 44.7765 56.144ZM44.7765 54.736C45.1818 54.736 45.4858 54.6187 45.6885 54.384C45.9018 54.1493 46.0458 53.8507 46.1205 53.488C46.2058 53.1147 46.2485 52.7307 46.2485 52.336V46.72C46.2485 46.304 46.2112 45.9147 46.1365 45.552C46.0618 45.1787 45.9178 44.88 45.7045 44.656C45.5018 44.432 45.1925 44.32 44.7765 44.32C44.3605 44.32 44.0458 44.432 43.8325 44.656C43.6192 44.88 43.4752 45.1787 43.4005 45.552C43.3258 45.9147 43.2885 46.304 43.2885 46.72V52.336C43.2885 52.7307 43.3258 53.1147 43.4005 53.488C43.4858 53.8507 43.6352 54.1493 43.8485 54.384C44.0725 54.6187 44.3818 54.736 44.7765 54.736ZM50.8699 56L53.2059 44.384H49.7339V43.04H54.9179V43.872L52.5179 56H50.8699Z" fill="#EA8733"/>
</svg>
