<svg width="47" height="47" viewBox="0 0 47 47" fill="none" xmlns="http://www.w3.org/2000/svg">
<path d="M34.75 4.01446C30.4606 1.53795 25.4738 0.546024 20.5632 1.19252C15.6525 1.83902 11.0924 4.08781 7.59012 7.59012C4.08781 11.0924 1.83902 15.6525 1.19252 20.5632C0.546024 25.4738 1.53795 30.4606 4.01446 34.75C6.49097 39.0394 10.3137 42.3918 14.8896 44.2873C19.4656 46.1827 24.5392 46.5153 29.3234 45.2333C34.1077 43.9514 38.3352 41.1266 41.3505 37.1971C44.3657 33.2676 46 28.453 46 23.5" stroke="#EA8733" stroke-width="0.888158" stroke-linecap="round" stroke-linejoin="round"/>
<path d="M11.2521 21.108C10.6921 21.108 10.2241 20.988 9.84806 20.748C9.48006 20.508 9.20006 20.176 9.00806 19.752C8.81606 19.328 8.70406 18.836 8.67206 18.276L9.87206 17.952C9.89606 18.296 9.94806 18.628 10.0281 18.948C10.1161 19.268 10.2561 19.532 10.4481 19.74C10.6401 19.94 10.9081 20.04 11.2521 20.04C11.6041 20.04 11.8681 19.944 12.0441 19.752C12.2281 19.552 12.3201 19.268 12.3201 18.9C12.3201 18.46 12.2201 18.108 12.0201 17.844C11.8201 17.572 11.5681 17.3 11.2641 17.028L9.63206 15.588C9.31206 15.308 9.07606 15.004 8.92406 14.676C8.77206 14.34 8.69606 13.928 8.69606 13.44C8.69606 12.728 8.90006 12.176 9.30806 11.784C9.71606 11.392 10.2721 11.196 10.9761 11.196C11.3601 11.196 11.6961 11.248 11.9841 11.352C12.2801 11.448 12.5241 11.6 12.7161 11.808C12.9161 12.016 13.0721 12.28 13.1841 12.6C13.3041 12.912 13.3841 13.28 13.4241 13.704L12.2721 14.016C12.2481 13.696 12.2001 13.404 12.1281 13.14C12.0561 12.868 11.9281 12.652 11.7441 12.492C11.5681 12.324 11.3121 12.24 10.9761 12.24C10.6401 12.24 10.3761 12.332 10.1841 12.516C10.0001 12.692 9.90806 12.956 9.90806 13.308C9.90806 13.604 9.95606 13.848 10.0521 14.04C10.1561 14.232 10.3201 14.428 10.5441 14.628L12.1881 16.068C12.5561 16.388 12.8801 16.772 13.1601 17.22C13.4401 17.66 13.5801 18.184 13.5801 18.792C13.5801 19.272 13.4801 19.688 13.2801 20.04C13.0801 20.384 12.8041 20.648 12.4521 20.832C12.1081 21.016 11.7081 21.108 11.2521 21.108ZM15.1119 21V11.28H18.8799V12.288H16.4679V15.504H18.4239V16.464H16.4679V20.028H18.9039V21H15.1119ZM20.4787 21V11.28H22.4347C23.0827 11.28 23.6187 11.368 24.0427 11.544C24.4667 11.712 24.7787 11.988 24.9787 12.372C25.1867 12.748 25.2907 13.244 25.2907 13.86C25.2907 14.236 25.2507 14.58 25.1707 14.892C25.0907 15.196 24.9627 15.456 24.7867 15.672C24.6107 15.88 24.3787 16.032 24.0907 16.128L25.4707 21H24.1627L22.8907 16.44H21.8347V21H20.4787ZM21.8347 15.468H22.3507C22.7347 15.468 23.0467 15.42 23.2867 15.324C23.5267 15.228 23.7027 15.064 23.8147 14.832C23.9267 14.6 23.9827 14.276 23.9827 13.86C23.9827 13.292 23.8787 12.884 23.6707 12.636C23.4627 12.38 23.0507 12.252 22.4347 12.252H21.8347V15.468ZM29.4973 21.12C28.8893 21.12 28.4013 20.992 28.0333 20.736C27.6733 20.472 27.4093 20.092 27.2413 19.596C27.0813 19.1 27.0013 18.504 27.0013 17.808V14.556C27.0013 13.844 27.0733 13.24 27.2173 12.744C27.3693 12.24 27.6333 11.856 28.0093 11.592C28.3933 11.328 28.9253 11.196 29.6053 11.196C30.2133 11.196 30.7013 11.3 31.0693 11.508C31.4453 11.708 31.7173 12.02 31.8853 12.444C32.0533 12.86 32.1373 13.388 32.1373 14.028V14.388H30.8653V14.088C30.8653 13.664 30.8373 13.32 30.7813 13.056C30.7253 12.784 30.6093 12.584 30.4333 12.456C30.2653 12.32 29.9973 12.252 29.6293 12.252C29.2293 12.252 28.9373 12.344 28.7533 12.528C28.5773 12.712 28.4653 12.964 28.4173 13.284C28.3773 13.596 28.3573 13.952 28.3573 14.352V17.952C28.3573 18.416 28.3893 18.804 28.4533 19.116C28.5253 19.428 28.6573 19.66 28.8493 19.812C29.0413 19.964 29.3133 20.04 29.6653 20.04C30.0173 20.04 30.2893 19.956 30.4813 19.788C30.6733 19.62 30.8053 19.372 30.8773 19.044C30.9493 18.716 30.9853 18.308 30.9853 17.82V17.148H29.7493V16.188H32.2093V21H31.3573L31.2253 19.884C31.0973 20.244 30.8973 20.54 30.6253 20.772C30.3533 21.004 29.9773 21.12 29.4973 21.12ZM36.5672 21.108C35.9112 21.108 35.3872 20.98 34.9952 20.724C34.6032 20.468 34.3232 20.104 34.1552 19.632C33.9872 19.152 33.9032 18.592 33.9032 17.952V14.268C33.9032 13.628 33.9872 13.08 34.1552 12.624C34.3312 12.16 34.6112 11.808 34.9952 11.568C35.3872 11.32 35.9112 11.196 36.5672 11.196C37.2232 11.196 37.7432 11.32 38.1272 11.568C38.5112 11.816 38.7872 12.168 38.9552 12.624C39.1312 13.08 39.2192 13.628 39.2192 14.268V17.964C39.2192 18.596 39.1312 19.148 38.9552 19.62C38.7872 20.092 38.5112 20.46 38.1272 20.724C37.7432 20.98 37.2232 21.108 36.5672 21.108ZM36.5672 20.04C36.9272 20.04 37.1992 19.968 37.3832 19.824C37.5672 19.672 37.6912 19.464 37.7552 19.2C37.8192 18.928 37.8512 18.612 37.8512 18.252V13.992C37.8512 13.632 37.8192 13.324 37.7552 13.068C37.6912 12.804 37.5672 12.604 37.3832 12.468C37.1992 12.324 36.9272 12.252 36.5672 12.252C36.2072 12.252 35.9312 12.324 35.7392 12.468C35.5552 12.604 35.4312 12.804 35.3672 13.068C35.3032 13.324 35.2712 13.632 35.2712 13.992V18.252C35.2712 18.612 35.3032 18.928 35.3672 19.2C35.4312 19.464 35.5552 19.672 35.7392 19.824C35.9312 19.968 36.2072 20.04 36.5672 20.04ZM12.4517 35V34.088L14.9237 30.236C15.1077 29.948 15.2757 29.68 15.4277 29.432C15.5877 29.184 15.7157 28.924 15.8117 28.652C15.9157 28.372 15.9677 28.052 15.9677 27.692C15.9677 27.244 15.8957 26.892 15.7517 26.636C15.6077 26.38 15.3557 26.252 14.9957 26.252C14.6917 26.252 14.4557 26.336 14.2877 26.504C14.1197 26.672 14.0037 26.892 13.9397 27.164C13.8757 27.436 13.8437 27.728 13.8437 28.04V28.364H12.5597V28.028C12.5597 27.444 12.6357 26.944 12.7877 26.528C12.9477 26.104 13.1997 25.776 13.5437 25.544C13.8957 25.312 14.3597 25.196 14.9357 25.196C15.7197 25.196 16.3037 25.42 16.6877 25.868C17.0717 26.308 17.2637 26.92 17.2637 27.704C17.2637 28.12 17.2117 28.484 17.1077 28.796C17.0117 29.108 16.8837 29.4 16.7237 29.672C16.5637 29.944 16.3877 30.224 16.1957 30.512L13.9637 33.92H17.0357V35H12.4517ZM21.2782 35.108C20.7262 35.108 20.2702 34.984 19.9102 34.736C19.5582 34.488 19.2942 34.148 19.1182 33.716C18.9502 33.284 18.8662 32.792 18.8662 32.24V28.052C18.8662 27.484 18.9502 26.988 19.1182 26.564C19.2862 26.132 19.5462 25.796 19.8982 25.556C20.2582 25.316 20.7182 25.196 21.2782 25.196C21.8382 25.196 22.2942 25.316 22.6462 25.556C22.9982 25.796 23.2582 26.132 23.4262 26.564C23.5942 26.988 23.6782 27.484 23.6782 28.052V32.24C23.6782 32.8 23.5902 33.296 23.4142 33.728C23.2462 34.16 22.9862 34.5 22.6342 34.748C22.2822 34.988 21.8302 35.108 21.2782 35.108ZM21.2782 34.052C21.5822 34.052 21.8102 33.964 21.9622 33.788C22.1222 33.612 22.2302 33.388 22.2862 33.116C22.3502 32.836 22.3822 32.548 22.3822 32.252V28.04C22.3822 27.728 22.3542 27.436 22.2982 27.164C22.2422 26.884 22.1342 26.66 21.9742 26.492C21.8222 26.324 21.5902 26.24 21.2782 26.24C20.9662 26.24 20.7302 26.324 20.5702 26.492C20.4102 26.66 20.3022 26.884 20.2462 27.164C20.1902 27.436 20.1622 27.728 20.1622 28.04V32.252C20.1622 32.548 20.1902 32.836 20.2462 33.116C20.3102 33.388 20.4222 33.612 20.5822 33.788C20.7502 33.964 20.9822 34.052 21.2782 34.052ZM27.9574 35.108C27.4054 35.108 26.9494 34.984 26.5894 34.736C26.2374 34.488 25.9734 34.148 25.7974 33.716C25.6294 33.284 25.5454 32.792 25.5454 32.24V28.052C25.5454 27.484 25.6294 26.988 25.7974 26.564C25.9654 26.132 26.2254 25.796 26.5774 25.556C26.9374 25.316 27.3974 25.196 27.9574 25.196C28.5174 25.196 28.9734 25.316 29.3254 25.556C29.6774 25.796 29.9374 26.132 30.1054 26.564C30.2734 26.988 30.3574 27.484 30.3574 28.052V32.24C30.3574 32.8 30.2694 33.296 30.0934 33.728C29.9254 34.16 29.6654 34.5 29.3134 34.748C28.9614 34.988 28.5094 35.108 27.9574 35.108ZM27.9574 34.052C28.2614 34.052 28.4894 33.964 28.6414 33.788C28.8014 33.612 28.9094 33.388 28.9654 33.116C29.0294 32.836 29.0614 32.548 29.0614 32.252V28.04C29.0614 27.728 29.0334 27.436 28.9774 27.164C28.9214 26.884 28.8134 26.66 28.6534 26.492C28.5014 26.324 28.2694 26.24 27.9574 26.24C27.6454 26.24 27.4094 26.324 27.2494 26.492C27.0894 26.66 26.9814 26.884 26.9254 27.164C26.8694 27.436 26.8414 27.728 26.8414 28.04V32.252C26.8414 32.548 26.8694 32.836 26.9254 33.116C26.9894 33.388 27.1014 33.612 27.2614 33.788C27.4294 33.964 27.6614 34.052 27.9574 34.052ZM32.5274 35L34.2794 26.288H31.6754V25.28H35.5634V25.904L33.7634 35H32.5274Z" fill="#EA8733"/>
</svg>
