<svg width="24" height="24" viewBox="0 0 24 24" fill="none" xmlns="http://www.w3.org/2000/svg">
<path d="M3.72909 0.577092C3.01376 1.29433 2.29735 2.0119 1.58143 2.72914C-0.643478 5.14958 -0.0911964 7.89253 0.657988 10.0369C1.648 12.755 3.65545 15.5763 6.0795 17.9812C8.50355 20.3861 11.3427 22.3723 14.0579 23.3564C16.7734 24.3405 19.4726 24.3055 21.294 22.4804C22.0101 21.7633 22.7258 21.045 23.4419 20.3285C24.1859 19.5683 24.1859 18.3349 23.4419 17.5748C22.2394 16.3736 21.0199 15.1556 19.9901 14.127C19.0342 13.225 17.8773 13.5254 17.2466 14.127C16.6125 14.7574 15.9682 15.3995 15.4256 15.94C14.6422 16.6391 13.6809 16.412 13.1817 15.94L8.10746 10.8575C7.48899 10.2378 7.48899 9.22994 8.10746 8.61031C8.70956 8.00401 9.31172 7.39694 9.91362 6.79007C10.722 5.98151 10.65 4.71735 9.91762 4.03611L9.918 4.03592L9.91362 4.03154L6.48125 0.581877C5.58157 -0.287553 4.47117 -0.0930855 3.72826 0.577501L3.72909 0.577092ZM5.71141 1.36032L9.14379 4.80998C9.52675 5.227 9.52466 5.62652 9.14303 6.01156L7.33307 7.8358C6.04587 9.09445 6.33506 10.6038 7.3344 11.6323L12.4087 16.7163C13.4489 17.7586 15.1567 17.7588 16.1975 16.7163C16.8333 16.0841 17.4794 15.4403 18.0237 14.8981C18.3503 14.5643 18.8868 14.5643 19.2135 14.8981C20.3622 16.0455 21.5118 17.1938 22.6608 18.3415C22.9942 18.6822 22.9942 19.2191 22.6608 19.5598L20.521 21.7043C19.0729 23.1552 16.9294 23.2294 14.4303 22.3239C11.9312 21.4184 9.18361 19.5159 6.84981 17.2009C4.5163 14.8861 2.59486 12.1564 1.68544 9.66037C0.776466 7.16439 0.855802 5.00781 2.35471 3.50345C3.06809 2.7887 3.78153 2.07415 4.49492 1.35944C4.91516 0.970015 5.32587 0.976673 5.71096 1.35944L5.71141 1.36032Z" fill="black"/>
</svg>
