<svg width="55" height="40" viewBox="0 0 55 40" fill="none" xmlns="http://www.w3.org/2000/svg">
<path d="M12.9892 0.000722474C10.7192 -0.0242571 8.48973 0.598684 6.4291 1.84337C3.43474 3.65188 1.37634 6.4011 0.476809 9.80248C-0.451249 13.3095 -0.0259216 16.7467 1.76496 19.6847C1.76914 19.6928 1.77369 19.7005 1.77824 19.7085C3.58925 22.5811 6.44694 24.5445 10.0382 25.519C10.915 25.7569 11.87 25.8853 12.9065 25.926C12.4691 27.2648 11.5342 28.4746 10.1907 30.119C8.53186 32.1497 4.40078 35.5664 4.40078 35.5664C4.07145 35.8331 3.85177 36.2143 3.78422 36.6359C3.71669 37.0575 3.80623 37.4894 4.03577 37.8479C4.26494 38.2065 4.61742 38.4659 5.02495 38.5758L10.0978 39.9408C10.5027 40.0503 10.9329 40.005 11.3062 39.8132C11.3062 39.8132 14.4843 38.1757 17.8265 34.9073C21.3024 31.5082 23.7633 26.5692 25.0738 21.6152C26.4025 16.5944 26.3486 12.0432 24.7388 8.13134C23.1315 4.22577 20.1049 1.52919 16.0967 0.441207C15.0601 0.1599 14.0213 0.0119469 12.9893 0.000800534L12.9892 0.000722474ZM41.3748 0.000722474C39.1048 -0.0242571 36.8753 0.598684 34.8147 1.84337C31.8203 3.65188 29.7619 6.4011 28.862 9.80248C27.9343 13.3095 28.3597 16.7467 30.1502 19.6847C30.1547 19.6928 30.1589 19.7005 30.1634 19.7085C31.9744 22.5811 34.8321 24.5445 38.4234 25.519C39.3006 25.7573 40.2552 25.8853 41.2917 25.926C40.8543 27.2648 39.9194 28.4746 38.5759 30.119C36.9171 32.1497 32.786 35.5664 32.786 35.5664H32.7864C32.457 35.8335 32.2373 36.2147 32.1702 36.6367C32.103 37.0586 32.1933 37.4906 32.4229 37.8491C32.6528 38.2073 33.006 38.4663 33.4135 38.5758L38.4829 39.9412L38.4833 39.9408C38.8889 40.0515 39.3206 40.0058 39.6952 39.8132C39.6952 39.8132 42.8698 38.1757 46.2121 34.9074C49.6875 31.5082 52.1518 26.5693 53.4627 21.6153C54.7907 16.5945 54.7338 12.0432 53.1239 8.13138C51.5167 4.22581 48.4938 1.52922 44.4856 0.441245C43.4487 0.159938 42.4068 0.0119852 41.3748 0.000838813L41.3748 0.000722474ZM12.9358 3.42364C13.6757 3.43901 14.4311 3.55353 15.2164 3.76682C18.3485 4.61688 20.3321 6.38155 21.5975 9.45631C22.8602 12.5249 22.9808 16.223 21.7898 20.7247C20.6137 25.1721 18.3125 29.643 15.4622 32.4299C13.2748 34.5689 11.2446 35.8813 10.3097 36.4346L9.058 36.0984C10.3161 34.9731 11.7781 33.5786 12.8097 32.3154C14.7443 29.947 16.5659 27.577 16.5876 24.1914C16.591 23.7145 16.399 23.2576 16.0576 22.9294C15.7157 22.6012 15.2551 22.431 14.7849 22.4598C13.161 22.5589 11.8611 22.4471 10.9172 22.1908C7.96838 21.3907 5.98283 19.9753 4.64922 17.8667C3.333 15.7004 3.03403 13.4535 3.7629 10.6977C4.45723 8.07213 5.85316 6.20331 8.17177 4.80297C9.76424 3.84147 11.3084 3.39074 12.9358 3.42409L12.9358 3.42364ZM41.3214 3.42364C42.0613 3.43901 42.8201 3.55353 43.6055 3.76682C46.7376 4.61688 48.7178 6.38155 49.9832 9.45631H49.9862C51.2493 12.5249 51.3665 16.223 50.1755 20.7247C48.999 25.1721 46.7011 29.643 43.851 32.4299C41.6636 34.5689 39.63 35.8813 38.6955 36.4346L37.4438 36.0984C38.7019 34.9731 40.1634 33.5786 41.1951 32.3154C43.1301 29.947 44.9513 27.577 44.9733 24.1914C44.9767 23.7145 44.7847 23.2576 44.4429 22.9294C44.1014 22.6012 43.6408 22.431 43.1706 22.4598C41.5467 22.5589 40.2468 22.4471 39.3029 22.1908C36.3537 21.3903 34.3719 19.9757 33.0383 17.8667C31.7221 15.7004 31.4193 13.4531 32.1486 10.6977C32.8429 8.07213 34.2388 6.20331 36.5574 4.80297C38.1495 3.84147 39.6941 3.39074 41.3214 3.42409L41.3214 3.42364Z" fill="#EA8733"/>
</svg>
