<svg width="68" height="64" viewBox="0 0 68 64" fill="none" xmlns="http://www.w3.org/2000/svg">
<g filter="url(#filter0_d_381_1531)">
<rect x="9" y="9" width="49" height="46" rx="8" fill="url(#paint0_linear_381_1531)" shape-rendering="crispEdges"/>
</g>
<path d="M30.3879 30.5552C31.2984 29.9501 31.8999 28.9159 31.8999 27.7432C31.8999 25.8822 30.3858 24.3678 28.5245 24.3678C26.6635 24.3678 25.149 25.8819 25.149 27.7432C25.149 28.9056 25.7397 29.9326 26.6363 30.5397C25.1297 30.8779 24 32.2241 24 33.8314V39.2868C24 39.477 24.1546 39.6316 24.3448 39.6316H32.6207C32.811 39.6316 32.9655 39.477 32.9655 39.2868V33.8314C32.9655 32.2455 31.8648 30.9148 30.3879 30.5552ZM25.8386 27.7431C25.8386 26.2623 27.0435 25.0573 28.5244 25.0573C30.0054 25.0573 31.2102 26.2621 31.2102 27.7431C31.2102 29.2241 30.0053 30.4288 28.5244 30.4288C27.0433 30.429 25.8386 29.2241 25.8386 27.7431ZM32.2756 38.9423H31.2935L31.2938 33.8053C31.2938 33.6151 31.1392 33.4605 30.949 33.4605C30.7582 33.4605 30.6041 33.6151 30.6041 33.8053L30.6038 38.9423H26.4446V33.8049C26.4446 33.6147 26.2901 33.4601 26.0998 33.4601C25.9091 33.4601 25.755 33.6147 25.755 33.8049V38.9419L24.6894 38.942V33.8315C24.6894 32.3504 25.8943 31.1452 27.3752 31.1452H29.5896C31.0707 31.1452 32.2754 32.3501 32.2754 33.8315L32.2756 38.9423ZM38.1377 28.2069H43.6549C43.8452 28.2069 43.9998 28.0523 43.9998 27.8621V22.3448C43.9998 22.1546 43.8452 22 43.6549 22H38.1377C37.947 22 37.7929 22.1546 37.7929 22.3448V24.7586H35.0342C34.8435 24.7586 34.6894 24.9132 34.6894 25.1034V31.6552H33.9998C33.809 31.6552 33.6549 31.8097 33.6549 32C33.6549 32.1903 33.809 32.3448 33.9998 32.3448H34.6894V38.8966C34.6894 39.0868 34.8435 39.2414 35.0342 39.2414H37.7929V41.6552C37.7929 41.8454 37.947 42 38.1377 42H43.6549C43.8452 42 43.9998 41.8454 43.9998 41.6552V36.1379C43.9998 35.9477 43.8452 35.7931 43.6549 35.7931H38.1377C37.947 35.7931 37.7929 35.9477 37.7929 36.1379V38.5517H35.3791V32.3448H37.7929V34.7586C37.7929 34.9489 37.947 35.1034 38.1377 35.1034H43.6549C43.8452 35.1034 43.9998 34.9489 43.9998 34.7586V29.2414C43.9998 29.0511 43.8452 28.8966 43.6549 28.8966H38.1377C37.947 28.8966 37.7929 29.0511 37.7929 29.2414V31.6552H35.3791V25.4483H37.7929V27.8621C37.7929 28.0523 37.947 28.2069 38.1377 28.2069ZM38.4825 36.4828H43.3101V41.3103H38.4825V36.4828ZM38.4825 29.5862H43.3101V34.4138H38.4825V29.5862ZM38.4825 22.6897H43.3101V27.5172H38.4825V22.6897ZM39.2731 25.3473C39.1383 25.2125 39.1383 24.9945 39.2731 24.8598C39.408 24.7249 39.626 24.7249 39.7607 24.8598L40.8018 25.9009L41.9673 23.5702C42.0521 23.3998 42.259 23.3305 42.43 23.4161C42.6004 23.5012 42.6694 23.7086 42.5841 23.8788L41.2048 26.6375C41.1547 26.7368 41.061 26.8057 40.9517 26.8237C40.9328 26.8262 40.9146 26.8276 40.8963 26.8276C40.8053 26.8276 40.7172 26.7917 40.6524 26.7266L39.2731 25.3473ZM39.2731 32.2439C39.1383 32.109 39.1383 31.891 39.2731 31.7563C39.408 31.6215 39.626 31.6215 39.7607 31.7563L40.8018 32.7974L41.9673 30.4668C42.0521 30.2963 42.259 30.2274 42.43 30.3127C42.6004 30.3978 42.6694 30.6052 42.5841 30.7754L41.2048 33.534C41.1547 33.6333 41.061 33.7023 40.9517 33.7203C40.9328 33.7228 40.9146 33.7241 40.8963 33.7241C40.8053 33.7241 40.7172 33.6883 40.6524 33.6232L39.2731 32.2439ZM39.2731 39.1404C39.1383 39.0056 39.1383 38.7876 39.2731 38.6529C39.408 38.518 39.626 38.518 39.7607 38.6529L40.8018 39.694L41.9673 37.3633C42.0521 37.1929 42.259 37.1239 42.43 37.2092C42.6004 37.2943 42.6694 37.5017 42.5841 37.672L41.2048 40.4306C41.1547 40.5299 41.061 40.5988 40.9517 40.6168C40.9328 40.6193 40.9146 40.6207 40.8963 40.6207C40.8053 40.6207 40.7172 40.5848 40.6524 40.5197L39.2731 39.1404Z" fill="white"/>
<defs>
<filter id="filter0_d_381_1531" x="0.1" y="0" width="67" height="64" filterUnits="userSpaceOnUse" color-interpolation-filters="sRGB">
<feFlood flood-opacity="0" result="BackgroundImageFix"/>
<feColorMatrix in="SourceAlpha" type="matrix" values="0 0 0 0 0 0 0 0 0 0 0 0 0 0 0 0 0 0 127 0" result="hardAlpha"/>
<feMorphology radius="6" operator="erode" in="SourceAlpha" result="effect1_dropShadow_381_1531"/>
<feOffset dx="0.1"/>
<feGaussianBlur stdDeviation="7.5"/>
<feComposite in2="hardAlpha" operator="out"/>
<feColorMatrix type="matrix" values="0 0 0 0 0.917647 0 0 0 0 0.529412 0 0 0 0 0.2 0 0 0 1 0"/>
<feBlend mode="normal" in2="BackgroundImageFix" result="effect1_dropShadow_381_1531"/>
<feBlend mode="normal" in="SourceGraphic" in2="effect1_dropShadow_381_1531" result="shape"/>
</filter>
<linearGradient id="paint0_linear_381_1531" x1="33.5" y1="9" x2="33.5" y2="55" gradientUnits="userSpaceOnUse">
<stop stop-color="#EA8733" stop-opacity="0.7"/>
<stop offset="1" stop-color="#EA8733"/>
</linearGradient>
</defs>
</svg>
