<svg width="68" height="64" viewBox="0 0 68 64" fill="none" xmlns="http://www.w3.org/2000/svg">
<g filter="url(#filter0_d_381_1523)">
<rect x="9" y="9" width="49" height="46" rx="8" fill="url(#paint0_linear_381_1523)" shape-rendering="crispEdges"/>
</g>
<path d="M41.5529 24.7007L33.7067 22.034C33.572 21.9887 33.4275 21.9887 33.2928 22.034L25.4466 24.7007C25.1798 24.792 25 25.0461 25 25.3334V32C25 39.3263 33.2273 41.9457 33.311 41.972C33.3724 41.9906 33.4359 42 33.5 42C33.5641 42 33.6276 41.9906 33.689 41.972C33.7726 41.946 42 39.3267 42 32V25.3334C42 25.046 41.8202 24.792 41.5528 24.7007H41.5529ZM40.6924 32C40.6924 37.7531 34.6568 40.2121 33.5001 40.63C32.3434 40.212 26.3077 37.7532 26.3077 32V25.8142L33.5001 23.3696L40.6924 25.8142V32Z" fill="white"/>
<path d="M30.6945 30.8617C30.4388 30.601 30.0256 30.601 29.7699 30.8617C29.5142 31.1224 29.5142 31.5436 29.7699 31.8044L32.3853 34.471C32.5129 34.6009 32.6803 34.6662 32.8477 34.6662C33.0151 34.6662 33.1825 34.6009 33.3099 34.4708L37.8868 29.8042C38.1425 29.5435 38.1425 29.1223 37.8868 28.8616C37.6311 28.6008 37.218 28.6008 36.9623 28.8616L32.8479 33.0569L30.6945 30.8617Z" fill="white"/>
<defs>
<filter id="filter0_d_381_1523" x="0.1" y="0" width="67" height="64" filterUnits="userSpaceOnUse" color-interpolation-filters="sRGB">
<feFlood flood-opacity="0" result="BackgroundImageFix"/>
<feColorMatrix in="SourceAlpha" type="matrix" values="0 0 0 0 0 0 0 0 0 0 0 0 0 0 0 0 0 0 127 0" result="hardAlpha"/>
<feMorphology radius="6" operator="erode" in="SourceAlpha" result="effect1_dropShadow_381_1523"/>
<feOffset dx="0.1"/>
<feGaussianBlur stdDeviation="7.5"/>
<feComposite in2="hardAlpha" operator="out"/>
<feColorMatrix type="matrix" values="0 0 0 0 0.917647 0 0 0 0 0.529412 0 0 0 0 0.2 0 0 0 1 0"/>
<feBlend mode="normal" in2="BackgroundImageFix" result="effect1_dropShadow_381_1523"/>
<feBlend mode="normal" in="SourceGraphic" in2="effect1_dropShadow_381_1523" result="shape"/>
</filter>
<linearGradient id="paint0_linear_381_1523" x1="33.5" y1="9" x2="33.5" y2="55" gradientUnits="userSpaceOnUse">
<stop stop-color="#EA8733" stop-opacity="0.7"/>
<stop offset="1" stop-color="#EA8733"/>
</linearGradient>
</defs>
</svg>
