<svg width="200" height="32" viewBox="0 0 200 32" fill="none" xmlns="http://www.w3.org/2000/svg">
<path d="M15.5484 4.98442C15.7271 4.59699 16.2778 4.59699 16.4565 4.98442L19.553 11.6977C19.6258 11.8556 19.7755 11.9643 19.9482 11.9848L27.2897 12.8552C27.7134 12.9055 27.8836 13.4292 27.5703 13.7189L22.1425 18.7383C22.0149 18.8564 21.9577 19.0323 21.9916 19.2029L23.4324 26.4541C23.5156 26.8726 23.0701 27.1962 22.6978 26.9878L16.2467 23.3768C16.0949 23.2919 15.91 23.2919 15.7582 23.3768L9.30714 26.9878C8.93483 27.1962 8.48935 26.8726 8.5725 26.4541L10.0133 19.2029C10.0472 19.0323 9.99004 18.8564 9.86238 18.7383L4.43457 13.7189C4.12132 13.4292 4.29148 12.9055 4.71518 12.8552L12.0567 11.9848C12.2294 11.9643 12.3791 11.8556 12.4519 11.6977L15.5484 4.98442Z" fill="#EA8733" stroke="#EA8733" stroke-width="2" stroke-linecap="round" stroke-linejoin="round"/>
<path d="M57.5484 4.98442C57.7271 4.59699 58.2778 4.59699 58.4565 4.98442L61.553 11.6977C61.6258 11.8556 61.7755 11.9643 61.9482 11.9848L69.2897 12.8552C69.7134 12.9055 69.8836 13.4292 69.5703 13.7189L64.1425 18.7383C64.0149 18.8564 63.9577 19.0323 63.9916 19.2029L65.4324 26.4541C65.5156 26.8726 65.0701 27.1962 64.6978 26.9878L58.2467 23.3768C58.0949 23.2919 57.91 23.2919 57.7582 23.3768L51.3071 26.9878C50.9348 27.1962 50.4893 26.8726 50.5725 26.4541L52.0133 19.2029C52.0472 19.0323 51.99 18.8564 51.8624 18.7383L46.4346 13.7189C46.1213 13.4292 46.2915 12.9055 46.7152 12.8552L54.0567 11.9848C54.2294 11.9643 54.3791 11.8556 54.4519 11.6977L57.5484 4.98442Z" fill="#EA8733" stroke="#EA8733" stroke-width="2" stroke-linecap="round" stroke-linejoin="round"/>
<path d="M99.5484 4.98442C99.7271 4.59699 100.278 4.59699 100.456 4.98442L103.553 11.6977C103.626 11.8556 103.775 11.9643 103.948 11.9848L111.29 12.8552C111.713 12.9055 111.884 13.4292 111.57 13.7189L106.143 18.7383C106.015 18.8564 105.958 19.0323 105.992 19.2029L107.432 26.4541C107.516 26.8726 107.07 27.1962 106.698 26.9878L100.247 23.3768C100.095 23.2919 99.91 23.2919 99.7582 23.3768L93.3071 26.9878C92.9348 27.1962 92.4893 26.8726 92.5725 26.4541L94.0133 19.2029C94.0472 19.0323 93.99 18.8564 93.8624 18.7383L88.4346 13.7189C88.1213 13.4292 88.2915 12.9055 88.7152 12.8552L96.0567 11.9848C96.2294 11.9643 96.3791 11.8556 96.4519 11.6977L99.5484 4.98442Z" fill="#EA8733" stroke="#EA8733" stroke-width="2" stroke-linecap="round" stroke-linejoin="round"/>
<path d="M141.548 4.98442C141.727 4.59699 142.278 4.59699 142.456 4.98442L145.553 11.6977C145.626 11.8556 145.775 11.9643 145.948 11.9848L153.29 12.8552C153.713 12.9055 153.884 13.4292 153.57 13.7189L148.143 18.7383C148.015 18.8564 147.958 19.0323 147.992 19.2029L149.432 26.4541C149.516 26.8726 149.07 27.1962 148.698 26.9878L142.247 23.3768C142.095 23.2919 141.91 23.2919 141.758 23.3768L135.307 26.9878C134.935 27.1962 134.489 26.8726 134.573 26.4541L136.013 19.2029C136.047 19.0323 135.99 18.8564 135.862 18.7383L130.435 13.7189C130.121 13.4292 130.291 12.9055 130.715 12.8552L138.057 11.9848C138.229 11.9643 138.379 11.8556 138.452 11.6977L141.548 4.98442Z" fill="#EA8733" stroke="#EA8733" stroke-width="2" stroke-linecap="round" stroke-linejoin="round"/>
<path d="M183.548 4.98442C183.727 4.59699 184.278 4.59699 184.456 4.98442L187.553 11.6977C187.626 11.8556 187.775 11.9643 187.948 11.9848L195.29 12.8552C195.713 12.9055 195.884 13.4292 195.57 13.7189L190.143 18.7383C190.015 18.8564 189.958 19.0323 189.992 19.2029L191.432 26.4541C191.516 26.8726 191.07 27.1962 190.698 26.9878L184.247 23.3768C184.095 23.2919 183.91 23.2919 183.758 23.3768L177.307 26.9878C176.935 27.1962 176.489 26.8726 176.573 26.4541L178.013 19.2029C178.047 19.0323 177.99 18.8564 177.862 18.7383L172.435 13.7189C172.121 13.4292 172.291 12.9055 172.715 12.8552L180.057 11.9848C180.229 11.9643 180.379 11.8556 180.452 11.6977L183.548 4.98442Z" fill="#EA8733" stroke="#EA8733" stroke-width="2" stroke-linecap="round" stroke-linejoin="round"/>
</svg>
